<svg xmlns="http://www.w3.org/2000/svg" xmlns:xlink="http://www.w3.org/1999/xlink" width="500" zoomAndPan="magnify" viewBox="0 0 375 374.999991" height="500" preserveAspectRatio="xMidYMid meet" version="1.0"><defs><g/><clipPath id="id1"><path d="M 91.429688 33.039062 L 297.773438 33.039062 L 297.773438 234.789062 L 91.429688 234.789062 Z M 91.429688 33.039062 " clip-rule="nonzero"/></clipPath><clipPath id="id2"><path d="M 271.398438 49.644531 L 302.125 49.644531 L 302.125 122.464844 L 271.398438 122.464844 Z M 271.398438 49.644531 " clip-rule="nonzero"/></clipPath><clipPath id="id3"><path d="M 209.671875 5.9375 L 233.671875 5.9375 L 233.671875 62.9375 L 209.671875 62.9375 Z M 209.671875 5.9375 " clip-rule="nonzero"/></clipPath><clipPath id="id4"><path d="M 141.054688 32.605469 L 168.804688 32.605469 L 168.804688 68.605469 L 141.054688 68.605469 Z M 141.054688 32.605469 " clip-rule="nonzero"/></clipPath><clipPath id="id5"><path d="M 173.941406 21.109375 L 202.441406 21.109375 L 202.441406 66.109375 L 173.941406 66.109375 Z M 173.941406 21.109375 " clip-rule="nonzero"/></clipPath></defs><rect x="-37.5" width="450" fill="#ffffff" y="-37.499999" height="449.999989" fill-opacity="1"/><rect x="-37.5" width="450" fill="#ffffff" y="-37.499999" height="449.999989" fill-opacity="1"/><rect x="-37.5" width="450" fill="#ffffff" y="-37.499999" height="449.999989" fill-opacity="1"/><rect x="-37.5" width="450" fill="#ffffff" y="-37.499999" height="449.999989" fill-opacity="1"/><g clip-path="url(#id1)"><path fill="#cb6ce6" d="M 240.128906 156.011719 L 253.816406 33.039062 L 297.765625 33.039062 L 288.445312 50.296875 L 269.300781 50.296875 C 264.925781 89.554688 260.554688 128.808594 256.1875 168.074219 C 225.902344 180.542969 183.152344 194.195312 152.859375 206.667969 L 152.859375 188 Z M 166.4375 207.691406 C 173.933594 207.691406 180.015625 213.753906 180.015625 221.234375 C 180.015625 228.71875 173.933594 234.789062 166.4375 234.789062 C 158.9375 234.789062 152.859375 228.71875 152.859375 221.234375 C 152.859375 213.753906 158.9375 207.691406 166.4375 207.691406 Z M 263.332031 207.691406 C 270.832031 207.691406 276.90625 213.753906 276.90625 221.234375 C 276.90625 228.71875 270.832031 234.789062 263.332031 234.789062 C 255.828125 234.789062 249.753906 228.71875 249.753906 221.234375 C 249.753906 213.753906 255.828125 207.691406 263.332031 207.691406 Z M 91.429688 53.714844 L 241.308594 53.714844 L 239.386719 70.972656 L 118.078125 70.972656 L 125.796875 88.230469 L 237.472656 88.230469 L 235.550781 105.488281 L 133.507812 105.488281 L 141.222656 122.75 L 233.628906 122.75 L 231.707031 140.007812 L 130 140.007812 L 91.425781 53.714844 " fill-opacity="1" fill-rule="evenodd"/></g><g clip-path="url(#id2)"><path fill="#efefef" d="M 271.457031 122.441406 L 367.695312 84.082031 L 273.367188 105.242188 Z M 275.28125 88.039062 L 383.074219 49.679688 L 277.195312 70.839844 L 275.28125 88.039062 " fill-opacity="1" fill-rule="evenodd"/></g><g fill="#cb6ce6" fill-opacity="1"><g transform="translate(84.347911, 333.687311)"><g><path d="M 3.507812 0 L 39.148438 0 L 39.148438 -10.519531 L 16.390625 -10.519531 L 16.390625 -51.171875 L 3.507812 -51.171875 Z M 3.507812 0 "/></g></g></g><g fill="#cb6ce6" fill-opacity="1"><g transform="translate(126.570735, 333.687311)"><g><path d="M 26.765625 1.144531 C 42.871094 1.144531 52.105469 -10.164062 52.105469 -25.621094 C 52.105469 -41.011719 42.871094 -52.316406 26.765625 -52.316406 C 10.519531 -52.316406 1.429688 -41.011719 1.429688 -25.621094 C 1.429688 -10.164062 10.519531 1.144531 26.765625 1.144531 Z M 26.765625 -9.375 C 17.390625 -9.375 14.3125 -16.675781 14.3125 -25.621094 C 14.3125 -34.496094 17.390625 -41.796875 26.765625 -41.796875 C 36.070312 -41.796875 39.222656 -34.496094 39.222656 -25.621094 C 39.222656 -16.675781 36.070312 -9.375 26.765625 -9.375 Z M 26.765625 -9.375 "/></g></g></g><g fill="#cb6ce6" fill-opacity="1"><g transform="translate(181.889631, 333.687311)"><g><path d="M 24.691406 1.144531 C 32.207031 1.144531 37.003906 -1.859375 39.4375 -6.511719 L 39.578125 -6.511719 L 40.867188 0 L 50.101562 0 L 50.101562 -27.195312 L 27.054688 -27.195312 L 27.054688 -17.894531 L 36.789062 -17.894531 C 36.644531 -12.953125 32.492188 -9.375 26.554688 -9.375 C 17.605469 -9.375 14.386719 -15.960938 14.386719 -25.621094 C 14.386719 -35.210938 17.605469 -41.796875 26.050781 -41.796875 C 33.136719 -41.796875 35.5 -37.71875 36.429688 -34.210938 L 49.3125 -34.210938 C 48.09375 -44.015625 40.292969 -52.316406 26.265625 -52.316406 C 10.164062 -52.316406 1.503906 -41.011719 1.503906 -25.621094 C 1.503906 -10.164062 10.164062 1.144531 24.691406 1.144531 Z M 24.691406 1.144531 "/></g></g></g><g fill="#cb6ce6" fill-opacity="1"><g transform="translate(236.421347, 333.687311)"><g><path d="M 3.578125 0 L 16.460938 0 L 16.460938 -51.171875 L 3.578125 -51.171875 Z M 3.578125 0 "/></g></g></g><g fill="#cb6ce6" fill-opacity="1"><g transform="translate(258.177095, 333.687311)"><g><path d="M 3.507812 0 L 16.390625 0 L 16.390625 -30.417969 L 16.53125 -30.417969 L 34.425781 0 L 47.308594 0 L 47.308594 -51.171875 L 34.425781 -51.171875 L 34.425781 -20.753906 L 34.28125 -20.753906 L 16.390625 -51.171875 L 3.507812 -51.171875 Z M 3.507812 0 "/></g></g></g><g clip-path="url(#id3)"><path fill="#cb6ce6" d="M 243.695312 -16.421875 L 132.148438 -28.804688 L 132.148438 -68.574219 L 147.800781 -60.140625 L 147.800781 -42.816406 C 183.410156 -38.855469 219.019531 -34.90625 254.632812 -30.953125 C 265.945312 -3.546875 278.328125 35.136719 289.640625 62.546875 L 272.710938 62.546875 Z M 290.570312 50.261719 C 290.570312 43.476562 296.070312 37.972656 302.855469 37.972656 C 309.640625 37.972656 315.148438 43.476562 315.148438 50.261719 C 315.148438 57.046875 309.640625 62.546875 302.855469 62.546875 C 296.070312 62.546875 290.570312 57.046875 290.570312 50.261719 Z M 290.570312 -37.417969 C 290.570312 -44.203125 296.070312 -49.699219 302.855469 -49.699219 C 309.640625 -49.699219 315.148438 -44.203125 315.148438 -37.417969 C 315.148438 -30.628906 309.640625 -25.132812 302.855469 -25.132812 C 296.070312 -25.132812 290.570312 -30.628906 290.570312 -37.417969 Z M 150.902344 118.132812 L 150.902344 -17.488281 L 166.558594 -15.75 L 166.558594 94.019531 L 182.210938 87.035156 L 182.210938 -14.015625 L 197.867188 -12.277344 L 197.867188 80.054688 L 213.523438 73.074219 L 213.523438 -10.539062 L 229.175781 -8.800781 L 229.175781 83.230469 L 150.90625 118.136719 " fill-opacity="1" fill-rule="evenodd"/></g><g clip-path="url(#id4)"><path fill="#cb6ce6" d="M 211.585938 5.8125 L 88.613281 -7.871094 L 88.613281 -51.820312 L 105.871094 -42.503906 L 105.871094 -23.355469 C 145.128906 -18.980469 184.386719 -14.613281 223.648438 -10.242188 C 236.121094 20.042969 249.769531 62.792969 262.242188 93.085938 L 243.578125 93.082031 Z M 263.269531 79.507812 C 263.269531 72.007812 269.328125 65.929688 276.8125 65.929688 C 284.292969 65.929688 290.363281 72.007812 290.363281 79.507812 C 290.363281 87.003906 284.292969 93.082031 276.8125 93.082031 C 269.328125 93.082031 263.269531 87.003906 263.269531 79.507812 Z M 263.269531 -17.390625 C 263.269531 -24.886719 269.328125 -30.960938 276.8125 -30.960938 C 284.292969 -30.960938 290.363281 -24.886719 290.363281 -17.390625 C 290.363281 -9.886719 284.292969 -3.8125 276.8125 -3.8125 C 269.328125 -3.8125 263.269531 -9.886719 263.269531 -17.390625 Z M 109.289062 154.515625 L 109.289062 4.632812 L 126.546875 6.554688 L 126.546875 127.867188 L 143.804688 120.148438 L 143.804688 8.472656 L 161.066406 10.394531 L 161.066406 112.433594 L 178.328125 104.71875 L 178.328125 12.316406 L 195.582031 14.238281 L 195.582031 115.945312 L 109.292969 154.515625 " fill-opacity="1" fill-rule="evenodd"/></g><g clip-path="url(#id5)"><path fill="#cb6ce6" d="M 211.3125 -4.199219 L 88.335938 -17.886719 L 88.335938 -61.832031 L 105.59375 -52.515625 L 105.59375 -33.371094 C 144.851562 -28.992188 184.109375 -24.625 223.371094 -20.257812 C 235.84375 10.027344 249.496094 52.777344 261.96875 83.074219 L 243.300781 83.070312 Z M 262.992188 69.496094 C 262.992188 61.996094 269.054688 55.914062 276.535156 55.914062 C 284.015625 55.914062 290.085938 61.996094 290.085938 69.496094 C 290.085938 76.992188 284.015625 83.070312 276.535156 83.070312 C 269.054688 83.070312 262.992188 76.992188 262.992188 69.496094 Z M 262.992188 -27.402344 C 262.992188 -34.898438 269.054688 -40.972656 276.535156 -40.972656 C 284.015625 -40.972656 290.085938 -34.898438 290.085938 -27.402344 C 290.085938 -19.898438 284.015625 -13.824219 276.535156 -13.824219 C 269.054688 -13.824219 262.992188 -19.898438 262.992188 -27.402344 Z M 109.011719 144.503906 L 109.011719 -5.378906 L 126.273438 -3.457031 L 126.273438 117.851562 L 143.53125 110.136719 L 143.53125 -1.539062 L 160.789062 0.382812 L 160.789062 102.421875 L 178.050781 94.707031 L 178.050781 2.300781 L 195.304688 4.222656 L 195.304688 105.929688 L 109.015625 144.503906 " fill-opacity="1" fill-rule="evenodd"/></g></svg>