<svg xmlns="http://www.w3.org/2000/svg" xmlns:xlink="http://www.w3.org/1999/xlink" width="500" zoomAndPan="magnify" viewBox="0 0 375 374.999991" height="500" preserveAspectRatio="xMidYMid meet" version="1.0"><defs><g/><clipPath id="id1"><path d="M 0 202.773438 L 168.425781 202.773438 L 168.425781 372.273438 L 0 372.273438 Z M 0 202.773438 " clip-rule="nonzero"/></clipPath><clipPath id="id2"><path d="M 146.324219 216.726562 L 182.207031 216.726562 L 182.207031 277.90625 L 146.324219 277.90625 Z M 146.324219 216.726562 " clip-rule="nonzero"/></clipPath><clipPath id="id3"><path d="M 111.652344 147.453125 L 134.902344 147.453125 L 134.902344 202.953125 L 111.652344 202.953125 Z M 111.652344 147.453125 " clip-rule="nonzero"/></clipPath><clipPath id="id4"><path d="M 44.253906 172.519531 L 72.003906 172.519531 L 72.003906 208.519531 L 44.253906 208.519531 Z M 44.253906 172.519531 " clip-rule="nonzero"/></clipPath><clipPath id="id5"><path d="M 76.558594 161.8125 L 105.058594 161.8125 L 105.058594 206.0625 L 76.558594 206.0625 Z M 76.558594 161.8125 " clip-rule="nonzero"/></clipPath></defs><rect x="-37.5" width="450" fill="#ffffff" y="-37.499999" height="449.999989" fill-opacity="1"/><rect x="-37.5" width="450" fill="#ffffff" y="-37.499999" height="449.999989" fill-opacity="1"/><rect x="-37.5" width="450" fill="#ffffff" y="-37.499999" height="449.999989" fill-opacity="1"/><rect x="-37.5" width="450" fill="#ffffff" y="-37.499999" height="449.999989" fill-opacity="1"/><g clip-path="url(#id1)"><path fill="#cb6ce6" d="M 120.121094 306.089844 L 131.589844 202.773438 L 168.417969 202.773438 L 160.609375 217.273438 L 144.566406 217.273438 C 140.898438 250.253906 137.238281 283.238281 133.578125 316.222656 C 108.195312 326.703125 72.371094 338.171875 46.984375 348.648438 L 46.984375 332.964844 Z M 58.363281 349.511719 C 64.644531 349.511719 69.742188 354.601562 69.742188 360.886719 C 69.742188 367.171875 64.644531 372.273438 58.363281 372.273438 C 52.078125 372.273438 46.984375 367.171875 46.984375 360.886719 C 46.984375 354.601562 52.078125 349.511719 58.363281 349.511719 Z M 139.566406 349.511719 C 145.847656 349.511719 150.9375 354.601562 150.9375 360.886719 C 150.9375 367.171875 145.847656 372.273438 139.566406 372.273438 C 133.277344 372.273438 128.1875 367.171875 128.1875 360.886719 C 128.1875 354.601562 133.277344 349.511719 139.566406 349.511719 Z M -4.496094 220.144531 L 121.109375 220.144531 L 119.5 234.644531 L 17.835938 234.644531 L 24.304688 249.144531 L 117.890625 249.144531 L 116.28125 263.644531 L 30.769531 263.644531 L 37.234375 278.148438 L 114.671875 278.148438 L 113.0625 292.644531 L 27.828125 292.644531 L -4.496094 220.148438 " fill-opacity="1" fill-rule="evenodd"/></g><g clip-path="url(#id2)"><path fill="#efefef" d="M 146.371094 277.886719 L 227.023438 245.65625 L 147.976562 263.433594 Z M 149.578125 248.984375 L 239.910156 216.753906 L 151.183594 234.535156 L 149.578125 248.984375 " fill-opacity="1" fill-rule="evenodd"/></g><g fill="#cb6ce6" fill-opacity="1"><g transform="translate(153.184571, 285.430871)"><g><path d="M 3.445312 0 L 38.457031 0 L 38.457031 -10.335938 L 16.097656 -10.335938 L 16.097656 -50.265625 L 3.445312 -50.265625 Z M 3.445312 0 "/></g></g></g><g fill="#cb6ce6" fill-opacity="1"><g transform="translate(194.658815, 285.430871)"><g><path d="M 26.292969 1.125 C 42.109375 1.125 51.179688 -9.984375 51.179688 -25.167969 C 51.179688 -40.28125 42.109375 -51.390625 26.292969 -51.390625 C 10.335938 -51.390625 1.40625 -40.28125 1.40625 -25.167969 C 1.40625 -9.984375 10.335938 1.125 26.292969 1.125 Z M 26.292969 -9.210938 C 17.082031 -9.210938 14.058594 -16.378906 14.058594 -25.167969 C 14.058594 -33.886719 17.082031 -41.054688 26.292969 -41.054688 C 35.433594 -41.054688 38.527344 -33.886719 38.527344 -25.167969 C 38.527344 -16.378906 35.433594 -9.210938 26.292969 -9.210938 Z M 26.292969 -9.210938 "/></g></g></g><g fill="#cb6ce6" fill-opacity="1"><g transform="translate(248.996949, 285.430871)"><g><path d="M 24.253906 1.125 C 31.636719 1.125 36.347656 -1.828125 38.738281 -6.398438 L 38.878906 -6.398438 L 40.140625 0 L 49.210938 0 L 49.210938 -26.714844 L 26.574219 -26.714844 L 26.574219 -17.574219 L 36.136719 -17.574219 C 35.996094 -12.726562 31.917969 -9.210938 26.082031 -9.210938 C 17.292969 -9.210938 14.128906 -15.675781 14.128906 -25.167969 C 14.128906 -34.589844 17.292969 -41.054688 25.589844 -41.054688 C 32.550781 -41.054688 34.871094 -37.050781 35.785156 -33.605469 L 48.4375 -33.605469 C 47.242188 -43.234375 39.578125 -51.390625 25.800781 -51.390625 C 9.984375 -51.390625 1.476562 -40.28125 1.476562 -25.167969 C 1.476562 -9.984375 9.984375 1.125 24.253906 1.125 Z M 24.253906 1.125 "/></g></g></g><g fill="#cb6ce6" fill-opacity="1"><g transform="translate(302.561858, 285.430871)"><g><path d="M 3.515625 0 L 16.167969 0 L 16.167969 -50.265625 L 3.515625 -50.265625 Z M 3.515625 0 "/></g></g></g><g fill="#cb6ce6" fill-opacity="1"><g transform="translate(323.931892, 285.430871)"><g><path d="M 3.445312 0 L 16.097656 0 L 16.097656 -29.878906 L 16.238281 -29.878906 L 33.816406 0 L 46.46875 0 L 46.46875 -50.265625 L 33.816406 -50.265625 L 33.816406 -20.386719 L 33.675781 -20.386719 L 16.097656 -50.265625 L 3.445312 -50.265625 Z M 3.445312 0 "/></g></g></g><g clip-path="url(#id3)"><path fill="#cb6ce6" d="M 145.222656 124.910156 L 35.507812 112.734375 L 35.507812 73.644531 L 50.902344 81.933594 L 50.902344 98.960938 C 85.929688 102.855469 120.953125 106.742188 155.984375 110.625 C 167.109375 137.5625 179.289062 175.589844 190.417969 202.535156 L 173.765625 202.53125 Z M 191.332031 190.457031 C 191.332031 183.789062 196.742188 178.378906 203.414062 178.378906 C 210.089844 178.378906 215.507812 183.789062 215.507812 190.457031 C 215.507812 197.125 210.089844 202.53125 203.414062 202.53125 C 196.742188 202.53125 191.332031 197.125 191.332031 190.457031 Z M 191.332031 104.269531 C 191.332031 97.601562 196.742188 92.199219 203.414062 92.199219 C 210.089844 92.199219 215.507812 97.601562 215.507812 104.269531 C 215.507812 110.945312 210.089844 116.347656 203.414062 116.347656 C 196.742188 116.347656 191.332031 110.945312 191.332031 104.269531 Z M 53.953125 257.175781 L 53.953125 123.859375 L 69.351562 125.570312 L 69.351562 233.46875 L 84.75 226.605469 L 84.75 127.273438 L 100.148438 128.984375 L 100.148438 219.746094 L 115.546875 212.882812 L 115.546875 130.691406 L 130.941406 132.402344 L 130.941406 222.867188 L 53.957031 257.175781 " fill-opacity="1" fill-rule="evenodd"/></g><g clip-path="url(#id4)"><path fill="#cb6ce6" d="M 113.886719 146.882812 L -7.257812 133.445312 L -7.257812 90.289062 L 9.742188 99.4375 L 9.742188 118.238281 C 48.417969 122.535156 87.089844 126.824219 125.769531 131.113281 C 138.054688 160.855469 151.503906 202.835938 163.789062 232.582031 L 145.398438 232.582031 Z M 164.800781 219.25 C 164.800781 211.886719 170.769531 205.914062 178.140625 205.914062 C 185.511719 205.914062 191.492188 211.886719 191.492188 219.25 C 191.492188 226.613281 185.511719 232.582031 178.140625 232.582031 C 170.769531 232.582031 164.800781 226.613281 164.800781 219.25 Z M 164.800781 124.097656 C 164.800781 116.734375 170.769531 110.773438 178.140625 110.773438 C 185.511719 110.773438 191.492188 116.734375 191.492188 124.097656 C 191.492188 131.46875 185.511719 137.429688 178.140625 137.429688 C 170.769531 137.429688 164.800781 131.46875 164.800781 124.097656 Z M 13.109375 292.90625 L 13.109375 145.722656 L 30.113281 147.613281 L 30.113281 266.734375 L 47.113281 259.15625 L 47.113281 149.496094 L 64.117188 151.382812 L 64.117188 251.582031 L 81.121094 244.007812 L 81.121094 153.265625 L 98.117188 155.15625 L 98.117188 255.03125 L 13.113281 292.90625 " fill-opacity="1" fill-rule="evenodd"/></g><g clip-path="url(#id5)"><path fill="#cb6ce6" d="M 113.617188 137.042969 L -7.527344 123.601562 L -7.527344 80.445312 L 9.472656 89.597656 L 9.472656 108.394531 C 48.148438 112.695312 86.820312 116.984375 125.5 121.273438 C 137.785156 151.011719 151.234375 192.992188 163.519531 222.742188 L 145.132812 222.738281 Z M 164.53125 209.40625 C 164.53125 202.042969 170.503906 196.074219 177.871094 196.074219 C 185.242188 196.074219 191.222656 202.042969 191.222656 209.40625 C 191.222656 216.769531 185.242188 222.738281 177.871094 222.738281 C 170.503906 222.738281 164.53125 216.769531 164.53125 209.40625 Z M 164.53125 114.253906 C 164.53125 106.894531 170.503906 100.929688 177.871094 100.929688 C 185.242188 100.929688 191.222656 106.894531 191.222656 114.253906 C 191.222656 121.625 185.242188 127.589844 177.871094 127.589844 C 170.503906 127.589844 164.53125 121.625 164.53125 114.253906 Z M 12.839844 283.0625 L 12.839844 135.882812 L 29.84375 137.769531 L 29.84375 256.894531 L 46.84375 249.316406 L 46.84375 139.652344 L 63.847656 141.539062 L 63.847656 241.742188 L 80.851562 234.164062 L 80.851562 143.425781 L 97.851562 145.3125 L 97.851562 245.1875 L 12.84375 283.066406 " fill-opacity="1" fill-rule="evenodd"/></g></svg>