<svg xmlns="http://www.w3.org/2000/svg" xmlns:xlink="http://www.w3.org/1999/xlink" width="500" zoomAndPan="magnify" viewBox="0 0 375 374.999991" height="500" preserveAspectRatio="xMidYMid meet" version="1.0"><defs><g/><clipPath id="id1"><path d="M 124.089844 122 L 232 122 L 232 191 L 124.089844 191 Z M 124.089844 122 " clip-rule="nonzero"/></clipPath><clipPath id="id2"><path d="M 158 195 L 177 195 L 177 213.457031 L 158 213.457031 Z M 158 195 " clip-rule="nonzero"/></clipPath><clipPath id="id3"><path d="M 195 195 L 215 195 L 215 213.457031 L 195 213.457031 Z M 195 195 " clip-rule="nonzero"/></clipPath></defs><rect x="-37.5" width="450" fill="#ffffff" y="-37.499999" height="449.999989" fill-opacity="1"/><rect x="-37.5" width="450" fill="#ffffff" y="-37.499999" height="449.999989" fill-opacity="1"/><rect x="-37.5" width="450" fill="#ffffff" y="-37.499999" height="449.999989" fill-opacity="1"/><rect x="-37.5" width="450" fill="#ffffff" y="-37.499999" height="449.999989" fill-opacity="1"/><g clip-path="url(#id1)"><path fill="#cb6ce6" d="M 229.503906 136.953125 C 227.515625 134.382812 224.546875 132.917969 221.3125 132.917969 L 164.390625 132.917969 C 162.40625 132.917969 160.800781 134.527344 160.800781 136.519531 C 160.800781 138.511719 162.40625 140.121094 164.390625 140.121094 L 221.3125 140.121094 C 222.296875 140.121094 223.230469 140.578125 223.828125 141.347656 C 224.425781 142.136719 224.640625 143.121094 224.402344 144.082031 L 215.566406 178.464844 C 214.894531 181.082031 212.550781 182.90625 209.867188 182.90625 L 162.117188 182.90625 C 158.597656 182.90625 155.484375 180.410156 154.742188 176.953125 L 153.976562 173.445312 L 199.378906 173.445312 C 201.367188 173.445312 202.96875 171.835938 202.96875 169.84375 C 202.96875 167.851562 201.367188 166.242188 199.378906 166.242188 L 152.441406 166.242188 L 150.503906 157.167969 L 203.640625 157.167969 C 205.628906 157.167969 207.234375 155.558594 207.234375 153.566406 C 207.234375 151.574219 205.628906 149.964844 203.640625 149.964844 L 148.945312 149.964844 L 147.820312 144.707031 C 146.433594 138.296875 142.816406 132.582031 137.570312 128.621094 L 130.410156 123.195312 C 128.832031 121.996094 126.582031 122.304688 125.382812 123.890625 C 124.183594 125.476562 124.496094 127.734375 126.078125 128.933594 L 133.238281 134.359375 C 137.09375 137.289062 139.773438 141.488281 140.78125 146.21875 L 147.703125 178.464844 C 149.160156 185.210938 155.195312 190.109375 162.09375 190.109375 L 209.820312 190.109375 C 215.78125 190.109375 220.976562 186.074219 222.488281 180.265625 L 231.324219 145.882812 C 232.136719 142.785156 231.46875 139.519531 229.503906 136.953125 Z M 229.503906 136.953125 " fill-opacity="1" fill-rule="nonzero"/></g><g clip-path="url(#id2)"><path fill="#cb6ce6" d="M 176.316406 204.226562 C 176.316406 204.824219 176.257812 205.417969 176.144531 206.003906 C 176.027344 206.59375 175.855469 207.164062 175.625 207.71875 C 175.394531 208.269531 175.117188 208.796875 174.785156 209.292969 C 174.453125 209.792969 174.074219 210.253906 173.652344 210.675781 C 173.230469 211.101562 172.769531 211.480469 172.273438 211.8125 C 171.777344 212.144531 171.253906 212.425781 170.699219 212.65625 C 170.148438 212.882812 169.578125 213.058594 168.992188 213.175781 C 168.40625 213.289062 167.816406 213.347656 167.21875 213.347656 C 166.621094 213.347656 166.027344 213.289062 165.441406 213.175781 C 164.855469 213.058594 164.289062 212.882812 163.734375 212.65625 C 163.183594 212.425781 162.660156 212.144531 162.164062 211.8125 C 161.664062 211.480469 161.207031 211.101562 160.785156 210.675781 C 160.359375 210.253906 159.984375 209.792969 159.652344 209.292969 C 159.320312 208.796875 159.039062 208.269531 158.8125 207.71875 C 158.582031 207.164062 158.410156 206.59375 158.292969 206.003906 C 158.175781 205.417969 158.117188 204.824219 158.117188 204.226562 C 158.117188 203.625 158.175781 203.035156 158.292969 202.445312 C 158.410156 201.859375 158.582031 201.289062 158.8125 200.734375 C 159.039062 200.179688 159.320312 199.65625 159.652344 199.15625 C 159.984375 198.660156 160.359375 198.199219 160.785156 197.773438 C 161.207031 197.351562 161.664062 196.972656 162.164062 196.640625 C 162.660156 196.308594 163.183594 196.027344 163.734375 195.796875 C 164.289062 195.566406 164.855469 195.394531 165.441406 195.277344 C 166.027344 195.160156 166.621094 195.101562 167.21875 195.101562 C 167.816406 195.101562 168.40625 195.160156 168.992188 195.277344 C 169.578125 195.394531 170.148438 195.566406 170.699219 195.796875 C 171.253906 196.027344 171.777344 196.308594 172.273438 196.640625 C 172.769531 196.972656 173.230469 197.351562 173.652344 197.773438 C 174.074219 198.199219 174.453125 198.660156 174.785156 199.15625 C 175.117188 199.65625 175.394531 200.179688 175.625 200.734375 C 175.855469 201.289062 176.027344 201.859375 176.144531 202.445312 C 176.257812 203.035156 176.316406 203.625 176.316406 204.226562 Z M 176.316406 204.226562 " fill-opacity="1" fill-rule="nonzero"/></g><g clip-path="url(#id3)"><path fill="#cb6ce6" d="M 214.152344 204.226562 C 214.152344 204.824219 214.09375 205.417969 213.980469 206.003906 C 213.863281 206.59375 213.691406 207.164062 213.460938 207.71875 C 213.230469 208.269531 212.953125 208.796875 212.621094 209.292969 C 212.289062 209.792969 211.910156 210.253906 211.488281 210.675781 C 211.066406 211.101562 210.605469 211.480469 210.109375 211.8125 C 209.613281 212.144531 209.089844 212.425781 208.535156 212.65625 C 207.984375 212.882812 207.414062 213.058594 206.828125 213.175781 C 206.242188 213.289062 205.652344 213.347656 205.054688 213.347656 C 204.457031 213.347656 203.863281 213.289062 203.277344 213.175781 C 202.691406 213.058594 202.125 212.882812 201.570312 212.65625 C 201.019531 212.425781 200.496094 212.144531 200 211.8125 C 199.5 211.480469 199.042969 211.101562 198.621094 210.675781 C 198.195312 210.253906 197.820312 209.792969 197.488281 209.292969 C 197.15625 208.796875 196.875 208.269531 196.648438 207.71875 C 196.417969 207.164062 196.246094 206.59375 196.128906 206.003906 C 196.011719 205.417969 195.953125 204.824219 195.953125 204.226562 C 195.953125 203.625 196.011719 203.035156 196.128906 202.445312 C 196.246094 201.859375 196.417969 201.289062 196.648438 200.734375 C 196.875 200.179688 197.15625 199.65625 197.488281 199.15625 C 197.820312 198.660156 198.195312 198.199219 198.621094 197.773438 C 199.042969 197.351562 199.5 196.972656 200 196.640625 C 200.496094 196.308594 201.019531 196.027344 201.570312 195.796875 C 202.125 195.566406 202.691406 195.394531 203.277344 195.277344 C 203.863281 195.160156 204.457031 195.101562 205.054688 195.101562 C 205.652344 195.101562 206.242188 195.160156 206.828125 195.277344 C 207.414062 195.394531 207.984375 195.566406 208.535156 195.796875 C 209.089844 196.027344 209.613281 196.308594 210.109375 196.640625 C 210.605469 196.972656 211.066406 197.351562 211.488281 197.773438 C 211.910156 198.199219 212.289062 198.660156 212.621094 199.15625 C 212.953125 199.65625 213.230469 200.179688 213.460938 200.734375 C 213.691406 201.289062 213.863281 201.859375 213.980469 202.445312 C 214.09375 203.035156 214.152344 203.625 214.152344 204.226562 Z M 214.152344 204.226562 " fill-opacity="1" fill-rule="nonzero"/></g><g fill="#cb6ce6" fill-opacity="1"><g transform="translate(-0.796861, 251.010017)"><g><path d="M 7.765625 -29.03125 L 14.78125 -6.96875 L 15.0625 -6.96875 L 22.09375 -29.03125 L 28.890625 -29.03125 L 18.890625 0 L 10.96875 0 L 0.953125 -29.03125 Z M 7.765625 -29.03125 "/></g></g></g><g fill="#cb6ce6" fill-opacity="1"><g transform="translate(29.063327, 251.010017)"><g><path d="M 12.328125 0.421875 C 10.097656 0.421875 8.175781 -0.03125 6.5625 -0.9375 C 4.945312 -1.851562 3.703125 -3.148438 2.828125 -4.828125 C 1.960938 -6.503906 1.53125 -8.488281 1.53125 -10.78125 C 1.53125 -13.03125 1.960938 -15 2.828125 -16.6875 C 3.703125 -18.375 4.929688 -19.691406 6.515625 -20.640625 C 8.097656 -21.585938 9.957031 -22.0625 12.09375 -22.0625 C 14.007812 -22.0625 15.738281 -21.65625 17.28125 -20.84375 C 18.832031 -20.03125 20.0625 -18.800781 20.96875 -17.15625 C 21.875 -15.519531 22.328125 -13.46875 22.328125 -11 L 22.328125 -9.34375 L 7.5 -9.34375 L 7.5 -9.328125 C 7.5 -7.703125 7.941406 -6.421875 8.828125 -5.484375 C 9.722656 -4.546875 10.925781 -4.078125 12.4375 -4.078125 C 13.445312 -4.078125 14.316406 -4.289062 15.046875 -4.71875 C 15.785156 -5.144531 16.304688 -5.773438 16.609375 -6.609375 L 22.203125 -6.234375 C 21.773438 -4.210938 20.695312 -2.597656 18.96875 -1.390625 C 17.238281 -0.179688 15.023438 0.421875 12.328125 0.421875 Z M 7.5 -13.078125 L 16.640625 -13.078125 C 16.628906 -14.378906 16.210938 -15.445312 15.390625 -16.28125 C 14.566406 -17.125 13.5 -17.546875 12.1875 -17.546875 C 10.84375 -17.546875 9.738281 -17.109375 8.875 -16.234375 C 8.019531 -15.367188 7.5625 -14.316406 7.5 -13.078125 Z M 7.5 -13.078125 "/></g></g></g><g fill="#cb6ce6" fill-opacity="1"><g transform="translate(52.925952, 251.010017)"><g><path d="M 8.453125 -12.59375 L 8.453125 0 L 2.40625 0 L 2.40625 -21.78125 L 8.171875 -21.78125 L 8.171875 -17.9375 L 8.421875 -17.9375 C 8.910156 -19.195312 9.71875 -20.195312 10.84375 -20.9375 C 11.976562 -21.6875 13.351562 -22.0625 14.96875 -22.0625 C 17.238281 -22.0625 19.054688 -21.328125 20.421875 -19.859375 C 21.796875 -18.398438 22.484375 -16.398438 22.484375 -13.859375 L 22.484375 0 L 16.4375 0 L 16.4375 -12.78125 C 16.445312 -14.113281 16.109375 -15.15625 15.421875 -15.90625 C 14.734375 -16.664062 13.785156 -17.046875 12.578125 -17.046875 C 11.359375 -17.046875 10.367188 -16.65625 9.609375 -15.875 C 8.847656 -15.09375 8.460938 -14 8.453125 -12.59375 Z M 8.453125 -12.59375 "/></g></g></g><g fill="#cb6ce6" fill-opacity="1"><g transform="translate(77.752733, 251.010017)"><g><path d="M 14 -21.78125 L 14 -17.234375 L 9.890625 -17.234375 L 9.890625 -6.6875 C 9.890625 -5.851562 10.078125 -5.289062 10.453125 -5 C 10.835938 -4.707031 11.332031 -4.5625 11.9375 -4.5625 C 12.21875 -4.5625 12.5 -4.585938 12.78125 -4.640625 C 13.070312 -4.691406 13.289062 -4.734375 13.4375 -4.765625 L 14.390625 -0.265625 C 14.085938 -0.171875 13.660156 -0.0625 13.109375 0.0625 C 12.566406 0.1875 11.898438 0.265625 11.109375 0.296875 C 8.921875 0.390625 7.160156 -0.0820312 5.828125 -1.125 C 4.503906 -2.164062 3.847656 -3.753906 3.859375 -5.890625 L 3.859375 -17.234375 L 0.875 -17.234375 L 0.875 -21.78125 L 3.859375 -21.78125 L 3.859375 -27 L 9.890625 -27 L 9.890625 -21.78125 Z M 14 -21.78125 "/></g></g></g><g fill="#cb6ce6" fill-opacity="1"><g transform="translate(93.264154, 251.010017)"><g><path d="M 12.328125 0.421875 C 10.097656 0.421875 8.175781 -0.03125 6.5625 -0.9375 C 4.945312 -1.851562 3.703125 -3.148438 2.828125 -4.828125 C 1.960938 -6.503906 1.53125 -8.488281 1.53125 -10.78125 C 1.53125 -13.03125 1.960938 -15 2.828125 -16.6875 C 3.703125 -18.375 4.929688 -19.691406 6.515625 -20.640625 C 8.097656 -21.585938 9.957031 -22.0625 12.09375 -22.0625 C 14.007812 -22.0625 15.738281 -21.65625 17.28125 -20.84375 C 18.832031 -20.03125 20.0625 -18.800781 20.96875 -17.15625 C 21.875 -15.519531 22.328125 -13.46875 22.328125 -11 L 22.328125 -9.34375 L 7.5 -9.34375 L 7.5 -9.328125 C 7.5 -7.703125 7.941406 -6.421875 8.828125 -5.484375 C 9.722656 -4.546875 10.925781 -4.078125 12.4375 -4.078125 C 13.445312 -4.078125 14.316406 -4.289062 15.046875 -4.71875 C 15.785156 -5.144531 16.304688 -5.773438 16.609375 -6.609375 L 22.203125 -6.234375 C 21.773438 -4.210938 20.695312 -2.597656 18.96875 -1.390625 C 17.238281 -0.179688 15.023438 0.421875 12.328125 0.421875 Z M 7.5 -13.078125 L 16.640625 -13.078125 C 16.628906 -14.378906 16.210938 -15.445312 15.390625 -16.28125 C 14.566406 -17.125 13.5 -17.546875 12.1875 -17.546875 C 10.84375 -17.546875 9.738281 -17.109375 8.875 -16.234375 C 8.019531 -15.367188 7.5625 -14.316406 7.5 -13.078125 Z M 7.5 -13.078125 "/></g></g></g><g fill="#cb6ce6" fill-opacity="1"><g transform="translate(117.126779, 251.010017)"><g/></g></g><g fill="#cb6ce6" fill-opacity="1"><g transform="translate(126.385429, 251.010017)"><g><path d="M 7.53125 0 L 0.953125 0 L 10.96875 -29.03125 L 18.890625 -29.03125 L 28.890625 0 L 22.3125 0 L 20.15625 -6.625 L 9.6875 -6.625 Z M 11.25 -11.40625 L 18.609375 -11.40625 L 15.046875 -22.40625 L 14.8125 -22.40625 Z M 11.25 -11.40625 "/></g></g></g><g fill="#cb6ce6" fill-opacity="1"><g transform="translate(156.245618, 251.010017)"><g><path d="M 16.375 -9.265625 L 16.375 -21.78125 L 22.40625 -21.78125 L 22.40625 0 L 16.609375 0 L 16.609375 -3.953125 L 16.390625 -3.953125 C 15.898438 -2.679688 15.082031 -1.65625 13.9375 -0.875 C 12.800781 -0.101562 11.414062 0.28125 9.78125 0.28125 C 7.59375 0.28125 5.816406 -0.445312 4.453125 -1.90625 C 3.097656 -3.363281 2.414062 -5.363281 2.40625 -7.90625 L 2.40625 -21.78125 L 8.453125 -21.78125 L 8.453125 -8.984375 C 8.460938 -7.703125 8.804688 -6.6875 9.484375 -5.9375 C 10.160156 -5.1875 11.070312 -4.8125 12.21875 -4.8125 C 13.300781 -4.8125 14.265625 -5.191406 15.109375 -5.953125 C 15.960938 -6.710938 16.382812 -7.816406 16.375 -9.265625 Z M 16.375 -9.265625 "/></g></g></g><g fill="#cb6ce6" fill-opacity="1"><g transform="translate(181.072399, 251.010017)"><g><path d="M 10.4375 0.359375 C 8.78125 0.359375 7.285156 -0.0664062 5.953125 -0.921875 C 4.617188 -1.785156 3.5625 -3.050781 2.78125 -4.71875 C 2 -6.382812 1.609375 -8.429688 1.609375 -10.859375 C 1.609375 -13.359375 2.007812 -15.4375 2.8125 -17.09375 C 3.625 -18.75 4.695312 -19.988281 6.03125 -20.8125 C 7.363281 -21.644531 8.828125 -22.0625 10.421875 -22.0625 C 11.640625 -22.0625 12.65625 -21.851562 13.46875 -21.4375 C 14.289062 -21.03125 14.953125 -20.523438 15.453125 -19.921875 C 15.960938 -19.316406 16.347656 -18.71875 16.609375 -18.125 L 16.796875 -18.125 L 16.796875 -29.03125 L 22.828125 -29.03125 L 22.828125 0 L 16.875 0 L 16.875 -3.484375 L 16.609375 -3.484375 C 16.335938 -2.878906 15.941406 -2.28125 15.421875 -1.6875 C 14.898438 -1.101562 14.226562 -0.613281 13.40625 -0.21875 C 12.59375 0.164062 11.601562 0.359375 10.4375 0.359375 Z M 12.34375 -4.453125 C 13.800781 -4.453125 14.925781 -5.039062 15.71875 -6.21875 C 16.519531 -7.394531 16.921875 -8.953125 16.921875 -10.890625 C 16.921875 -12.835938 16.523438 -14.382812 15.734375 -15.53125 C 14.941406 -16.675781 13.8125 -17.25 12.34375 -17.25 C 10.851562 -17.25 9.71875 -16.660156 8.9375 -15.484375 C 8.15625 -14.304688 7.765625 -12.773438 7.765625 -10.890625 C 7.765625 -8.984375 8.15625 -7.429688 8.9375 -6.234375 C 9.726562 -5.046875 10.863281 -4.453125 12.34375 -4.453125 Z M 12.34375 -4.453125 "/></g></g></g><g fill="#cb6ce6" fill-opacity="1"><g transform="translate(206.437971, 251.010017)"><g><path d="M 2.40625 0 L 2.40625 -21.78125 L 8.453125 -21.78125 L 8.453125 0 Z M 5.8125 -24.578125 C 4.925781 -24.578125 4.160156 -24.878906 3.515625 -25.484375 C 2.867188 -26.085938 2.546875 -26.804688 2.546875 -27.640625 C 2.546875 -28.484375 2.867188 -29.203125 3.515625 -29.796875 C 4.160156 -30.390625 4.925781 -30.6875 5.8125 -30.6875 C 6.707031 -30.6875 7.476562 -30.390625 8.125 -29.796875 C 8.769531 -29.203125 9.09375 -28.484375 9.09375 -27.640625 C 9.09375 -26.804688 8.769531 -26.085938 8.125 -25.484375 C 7.476562 -24.878906 6.707031 -24.578125 5.8125 -24.578125 Z M 5.8125 -24.578125 "/></g></g></g><g fill="#cb6ce6" fill-opacity="1"><g transform="translate(217.298795, 251.010017)"><g><path d="M 12.25 0.421875 C 10.050781 0.421875 8.148438 -0.046875 6.546875 -0.984375 C 4.941406 -1.921875 3.703125 -3.234375 2.828125 -4.921875 C 1.960938 -6.609375 1.53125 -8.566406 1.53125 -10.796875 C 1.53125 -13.046875 1.960938 -15.015625 2.828125 -16.703125 C 3.703125 -18.390625 4.941406 -19.703125 6.546875 -20.640625 C 8.148438 -21.585938 10.050781 -22.0625 12.25 -22.0625 C 14.445312 -22.0625 16.347656 -21.585938 17.953125 -20.640625 C 19.554688 -19.703125 20.789062 -18.390625 21.65625 -16.703125 C 22.53125 -15.015625 22.96875 -13.046875 22.96875 -10.796875 C 22.96875 -8.566406 22.53125 -6.609375 21.65625 -4.921875 C 20.789062 -3.234375 19.554688 -1.921875 17.953125 -0.984375 C 16.347656 -0.046875 14.445312 0.421875 12.25 0.421875 Z M 12.28125 -4.25 C 13.769531 -4.25 14.898438 -4.875 15.671875 -6.125 C 16.441406 -7.375 16.828125 -8.945312 16.828125 -10.84375 C 16.828125 -12.738281 16.441406 -14.3125 15.671875 -15.5625 C 14.898438 -16.820312 13.769531 -17.453125 12.28125 -17.453125 C 10.757812 -17.453125 9.609375 -16.820312 8.828125 -15.5625 C 8.054688 -14.3125 7.671875 -12.738281 7.671875 -10.84375 C 7.671875 -8.945312 8.054688 -7.375 8.828125 -6.125 C 9.609375 -4.875 10.757812 -4.25 12.28125 -4.25 Z M 12.28125 -4.25 "/></g></g></g><g fill="#cb6ce6" fill-opacity="1"><g transform="translate(241.799464, 251.010017)"><g><path d="M 15.984375 -14.3125 L 15.984375 -9.53125 L 2.734375 -9.53125 L 2.734375 -14.3125 Z M 15.984375 -14.3125 "/></g></g></g><g fill="#cb6ce6" fill-opacity="1"><g transform="translate(260.515246, 251.010017)"><g><path d="M 22.71875 -21.78125 L 15.09375 0 L 8.296875 0 L 0.6875 -21.78125 L 7.0625 -21.78125 L 11.578125 -6.1875 L 11.8125 -6.1875 L 16.3125 -21.78125 Z M 22.71875 -21.78125 "/></g></g></g><g fill="#cb6ce6" fill-opacity="1"><g transform="translate(283.910002, 251.010017)"><g><path d="M 2.40625 0 L 2.40625 -21.78125 L 8.453125 -21.78125 L 8.453125 0 Z M 5.8125 -24.578125 C 4.925781 -24.578125 4.160156 -24.878906 3.515625 -25.484375 C 2.867188 -26.085938 2.546875 -26.804688 2.546875 -27.640625 C 2.546875 -28.484375 2.867188 -29.203125 3.515625 -29.796875 C 4.160156 -30.390625 4.925781 -30.6875 5.8125 -30.6875 C 6.707031 -30.6875 7.476562 -30.390625 8.125 -29.796875 C 8.769531 -29.203125 9.09375 -28.484375 9.09375 -27.640625 C 9.09375 -26.804688 8.769531 -26.085938 8.125 -25.484375 C 7.476562 -24.878906 6.707031 -24.578125 5.8125 -24.578125 Z M 5.8125 -24.578125 "/></g></g></g><g fill="#cb6ce6" fill-opacity="1"><g transform="translate(294.770825, 251.010017)"><g><path d="M 20.53125 -15.5625 L 15 -15.21875 C 14.84375 -15.925781 14.457031 -16.53125 13.84375 -17.03125 C 13.226562 -17.53125 12.398438 -17.78125 11.359375 -17.78125 C 10.421875 -17.78125 9.628906 -17.582031 8.984375 -17.1875 C 8.335938 -16.789062 8.019531 -16.269531 8.03125 -15.625 C 8.019531 -15.101562 8.222656 -14.660156 8.640625 -14.296875 C 9.054688 -13.941406 9.769531 -13.65625 10.78125 -13.4375 L 14.734375 -12.640625 C 18.921875 -11.785156 21.019531 -9.820312 21.03125 -6.75 C 21.03125 -5.320312 20.609375 -4.066406 19.765625 -2.984375 C 18.929688 -1.910156 17.785156 -1.070312 16.328125 -0.46875 C 14.878906 0.125 13.210938 0.421875 11.328125 0.421875 C 8.441406 0.421875 6.144531 -0.175781 4.4375 -1.375 C 2.726562 -2.582031 1.734375 -4.226562 1.453125 -6.3125 L 7.390625 -6.625 C 7.578125 -5.726562 8.007812 -5.050781 8.6875 -4.59375 C 9.375 -4.144531 10.257812 -3.921875 11.34375 -3.921875 C 12.394531 -3.921875 13.242188 -4.128906 13.890625 -4.546875 C 14.546875 -4.960938 14.878906 -5.492188 14.890625 -6.140625 C 14.859375 -7.210938 13.925781 -7.9375 12.09375 -8.3125 L 8.328125 -9.0625 C 4.109375 -9.90625 2.007812 -11.976562 2.03125 -15.28125 C 2.019531 -17.382812 2.859375 -19.039062 4.546875 -20.25 C 6.234375 -21.457031 8.46875 -22.0625 11.25 -22.0625 C 14 -22.0625 16.164062 -21.476562 17.75 -20.3125 C 19.332031 -19.15625 20.257812 -17.570312 20.53125 -15.5625 Z M 20.53125 -15.5625 "/></g></g></g><g fill="#cb6ce6" fill-opacity="1"><g transform="translate(317.201424, 251.010017)"><g><path d="M 16.375 -9.265625 L 16.375 -21.78125 L 22.40625 -21.78125 L 22.40625 0 L 16.609375 0 L 16.609375 -3.953125 L 16.390625 -3.953125 C 15.898438 -2.679688 15.082031 -1.65625 13.9375 -0.875 C 12.800781 -0.101562 11.414062 0.28125 9.78125 0.28125 C 7.59375 0.28125 5.816406 -0.445312 4.453125 -1.90625 C 3.097656 -3.363281 2.414062 -5.363281 2.40625 -7.90625 L 2.40625 -21.78125 L 8.453125 -21.78125 L 8.453125 -8.984375 C 8.460938 -7.703125 8.804688 -6.6875 9.484375 -5.9375 C 10.160156 -5.1875 11.070312 -4.8125 12.21875 -4.8125 C 13.300781 -4.8125 14.265625 -5.191406 15.109375 -5.953125 C 15.960938 -6.710938 16.382812 -7.816406 16.375 -9.265625 Z M 16.375 -9.265625 "/></g></g></g><g fill="#cb6ce6" fill-opacity="1"><g transform="translate(342.028205, 251.010017)"><g><path d="M 12.328125 0.421875 C 10.097656 0.421875 8.175781 -0.03125 6.5625 -0.9375 C 4.945312 -1.851562 3.703125 -3.148438 2.828125 -4.828125 C 1.960938 -6.503906 1.53125 -8.488281 1.53125 -10.78125 C 1.53125 -13.03125 1.960938 -15 2.828125 -16.6875 C 3.703125 -18.375 4.929688 -19.691406 6.515625 -20.640625 C 8.097656 -21.585938 9.957031 -22.0625 12.09375 -22.0625 C 14.007812 -22.0625 15.738281 -21.65625 17.28125 -20.84375 C 18.832031 -20.03125 20.0625 -18.800781 20.96875 -17.15625 C 21.875 -15.519531 22.328125 -13.46875 22.328125 -11 L 22.328125 -9.34375 L 7.5 -9.34375 L 7.5 -9.328125 C 7.5 -7.703125 7.941406 -6.421875 8.828125 -5.484375 C 9.722656 -4.546875 10.925781 -4.078125 12.4375 -4.078125 C 13.445312 -4.078125 14.316406 -4.289062 15.046875 -4.71875 C 15.785156 -5.144531 16.304688 -5.773438 16.609375 -6.609375 L 22.203125 -6.234375 C 21.773438 -4.210938 20.695312 -2.597656 18.96875 -1.390625 C 17.238281 -0.179688 15.023438 0.421875 12.328125 0.421875 Z M 7.5 -13.078125 L 16.640625 -13.078125 C 16.628906 -14.378906 16.210938 -15.445312 15.390625 -16.28125 C 14.566406 -17.125 13.5 -17.546875 12.1875 -17.546875 C 10.84375 -17.546875 9.738281 -17.109375 8.875 -16.234375 C 8.019531 -15.367188 7.5625 -14.316406 7.5 -13.078125 Z M 7.5 -13.078125 "/></g></g></g><g fill="#cb6ce6" fill-opacity="1"><g transform="translate(365.89083, 251.010017)"><g><path d="M 8.453125 -29.03125 L 8.453125 0 L 2.40625 0 L 2.40625 -29.03125 Z M 8.453125 -29.03125 "/></g></g></g></svg>